<?xml version="1.0" encoding="utf-8"?>
<!-- Generator: Adobe Illustrator 25.0.0, SVG Export Plug-In . SVG Version: 6.00 Build 0)  -->
<svg version="1.1" id="Layer_1" xmlns="http://www.w3.org/2000/svg" xmlns:xlink="http://www.w3.org/1999/xlink" x="0px" y="0px"
	 viewBox="0 0 400 400" style="enable-background:new 0 0 400 400;" xml:space="preserve">
<style type="text/css">
	.st0{opacity:0.8;fill:#939598;enable-background:new    ;}
	.st1{font-family:'SnellRoundhand';}
	.st2{font-size:86px;}
</style>
<g id="Layer_1_1_">
	<g>
		<g>
			<path d="M127.98,111.69l0.01-11.98l42.04-0.03l-0.01,16.47l-3,0L127.98,111.69z M172.88,283.84l39.03,4.46l-0.01,11.98
				l-84.08,0.06l0.01-11.98l39.04-4.52L172.88,283.84z M156.44,192.52c0.02-30.84,0.05-61.98-0.83-92.82l28.83-0.02
				c-0.92,30.24-0.95,61.39-0.97,92.83l-0.01,18.27c-0.02,30.54-0.05,58.69,0.83,89.53l-28.83,0.02
				c0.92-30.24,0.95-61.39,0.97-92.83L156.44,192.52z M199.66,220.94l-29.73,0.02l0.01-13.77l34.23-0.02
				c36.94-0.03,51.37-19.5,51.39-47.94c0.02-29.05-16.18-45.8-52.52-45.78l-33.03,0.02l0.01-13.77l38.74-0.03
				c49.85-0.03,75.35,24.5,75.33,59.54C284.07,192.73,260.92,220.9,199.66,220.94z"/>
		</g>
	</g>
</g>
<g id="Layer_2_1_">
	<text transform="matrix(0.9782 0 0 1 54.6123 195.9238)" class="st0 st1 st2">for petunia</text>
</g>
</svg>
