<?xml version="1.0" encoding="utf-8"?>
<!-- Generator: Adobe Illustrator 25.0.0, SVG Export Plug-In . SVG Version: 6.00 Build 0)  -->
<svg version="1.1" id="Layer_1" xmlns="http://www.w3.org/2000/svg" xmlns:xlink="http://www.w3.org/1999/xlink" x="0px" y="0px"
	 viewBox="0 0 400 250" style="enable-background:new 0 0 400 250;" xml:space="preserve">
<style type="text/css">
	.st0{opacity:0.8;enable-background:new    ;}
	.st1{fill:#939598;}
</style>
<g id="Layer_1_1_">
	<g>
		<g>
			<path d="M106.2,15l0-14.9L160,0l0,20.5h-3.8L106.2,15z M163.6,229.4l50,5.6l0,14.9L106,250l0-14.9l50-5.6H163.6z M142.6,115.7
				c0-38.4,0.1-77.2-1.1-115.6l36.9,0c-1.2,37.7-1.2,76.5-1.2,115.7l0,22.8c0,38-0.1,73.1,1.1,111.5l-36.9,0
				c1.2-37.7,1.2-76.5,1.2-115.7L142.6,115.7z M197.9,151.1l-38,0l0-17.2l43.8,0c47.3,0,65.7-24.3,65.8-59.7
				c0-36.2-20.7-57.1-67.2-57l-42.3,0L160,0l49.6,0C273.3,0,306,30.5,306,74.2C305.9,115.9,276.3,151,197.9,151.1z"/>
		</g>
	</g>
</g>
<g id="Layer_2_1_">
	<g class="st0">
		<path class="st1" d="M56.1,92.4v-1h6.8c2.3-3.6,4.6-7.1,7-10.8c2.4-3.6,4.9-6.9,7.6-9.8c2.6-2.9,5.4-5.2,8.3-7.1
			c2.9-1.8,5.9-2.7,9-2.7c1.9,0,3.4,0.4,4.6,1.2c1.2,0.8,1.8,2,1.8,3.6c0,1.4-0.4,2.5-1.3,3.4c-0.9,0.9-2,1.4-3.3,1.5
			c0.2-0.8,0.4-1.6,0.6-2.3c0.1-0.7,0.2-1.6,0.2-2.5c0-1.1-0.3-2.1-0.8-2.8c-0.6-0.7-1.5-1-2.9-1c-2.2,0-4.4,1-6.6,2.9
			c-2.3,1.9-4.5,4.3-6.7,7.3c-2.2,2.9-4.3,6.1-6.4,9.5c-2.1,3.4-4.1,6.6-5.9,9.6h19.9v1H67.3c-5.6,9.4-10.7,17.5-15.1,24.2
			s-8.7,12.2-12.8,16.5c-4.1,4.3-8.2,7.5-12.3,9.5c-4.1,2-8.6,3-13.6,3c-1.8,0-3.4-0.2-5.1-0.6c-1.6-0.4-3-1.1-4.3-1.9
			c-1.2-0.9-2.2-1.9-3-3.2c-0.8-1.3-1.1-2.8-1.1-4.5c0-2.2,0.7-4.1,2.2-5.7c1.4-1.6,3.9-2.4,7.2-2.4h0.8v0.7c-1.8,0.1-3.3,0.8-4.5,2
			c-1.2,1.2-1.8,2.9-1.8,5c0,3,0.8,5.3,2.5,7.1c1.7,1.7,4.2,2.6,7.5,2.6c3.2,0,6.2-0.7,9-2.1c2.9-1.4,5.6-3.3,8.3-5.8
			c2.7-2.5,5.3-5.4,7.8-8.7c2.5-3.3,5.1-6.9,7.6-10.8c2.5-3.9,5.1-7.9,7.7-12.1c2.6-4.2,5.2-8.4,7.9-12.6H56.1z"/>
		<path class="st1" d="M119.2,99.2c-1.4,1.5-3,2.8-4.7,3.7c-1.8,0.9-3.5,1.4-5.2,1.4c-1.6,0-3-0.4-4.2-1.1c-1.2-0.7-2.1-1.6-2.7-2.5
			h-0.2c-0.6,2.2-1.7,4.5-3.3,7c-1.6,2.5-3.5,4.7-5.7,6.8s-4.6,3.8-7.2,5.2s-5.3,2.1-8.1,2.1c-2.5,0-4.4-0.7-5.7-2.1
			c-1.3-1.4-1.9-3.4-1.9-5.8c0-1.3,0.3-2.7,1-4.4c0.6-1.7,1.5-3.3,2.7-5c1.1-1.7,2.5-3.4,4-5c1.6-1.6,3.2-3.1,5.1-4.4
			c1.8-1.3,3.7-2.3,5.8-3.1c2-0.8,4.1-1.2,6.1-1.2c2.4,0,4.3,0.7,5.6,2.1s2,3.2,2.2,5.3c0.1,1.3,0.7,2.5,1.9,3.7
			c1.1,1.1,2.7,1.7,4.7,1.7c1.8,0,3.4-0.4,5-1.3c1.6-0.9,3-2,4.3-3.4L119.2,99.2z M75,115.8c0,1.5,0.3,2.7,0.9,3.5
			c0.6,0.9,1.5,1.3,2.6,1.3c1.6,0,3.1-0.4,4.7-1.2c1.6-0.8,3-1.9,4.5-3.3c1.4-1.3,2.8-2.9,4-4.6c1.2-1.7,2.3-3.5,3.2-5.3
			c0.9-1.8,1.6-3.6,2.2-5.4c0.5-1.7,0.8-3.3,0.8-4.8c0-1.2-0.3-2.2-0.9-3.1c-0.6-0.8-1.6-1.2-2.9-1.2c-1.2,0-2.5,0.4-4,1.2
			s-2.8,1.8-4.3,3.1c-1.4,1.3-2.8,2.7-4.1,4.4c-1.3,1.7-2.4,3.4-3.5,5.2c-1,1.8-1.8,3.6-2.4,5.3C75.3,112.5,75,114.2,75,115.8z"/>
		<path class="st1" d="M127.7,91.3l-11.2,15.9l0.2,0.2c0.8-1,1.9-2.1,3.1-3.4c1.3-1.3,2.6-2.6,4.1-4c1.5-1.3,3.1-2.7,4.7-4
			c1.6-1.3,3.3-2.5,4.8-3.5c0.3-0.6,0.6-1,1-1.4c0.4-0.3,1.1-0.5,2.1-0.5c0.6,0,1.2,0,1.7,0c0.5,0,1,0.1,1.5,0.1c-1,1-2,2.2-2.9,3.6
			c-0.9,1.4-1.4,2.9-1.4,4.6c0,1.3,0.3,2.4,1,3.1c0.7,0.7,1.5,1.1,2.5,1.1c0.9,0,1.7-0.2,2.6-0.5c0.8-0.3,1.7-0.8,2.4-1.3
			c0.8-0.5,1.5-1.1,2.2-1.6c0.7-0.6,1.3-1.1,1.8-1.5l0.5,0.3c-0.6,0.6-1.3,1.2-2,1.8c-0.8,0.7-1.6,1.3-2.5,1.8
			c-0.9,0.6-1.8,1-2.8,1.4c-1,0.4-2,0.6-3.1,0.6c-1.9,0-3.4-0.6-4.5-1.7c-1.1-1.1-1.7-2.7-1.7-4.7c0-1.4,0.3-2.6,1-3.7l-0.2-0.2
			c-2.4,1.6-5,3.7-7.9,6.3c-2.9,2.6-5.9,5.7-9.1,9.2c-1.2,1.3-2.4,2.9-3.6,5c-1.3,2.1-2.4,4.2-3.3,6.4h-5.7
			c3.2-4.9,6.3-9.8,9.5-14.7c3.2-4.9,6.4-9.8,9.8-14.9H127.7z"/>
		<path class="st1" d="M190.9,74.7c-3.1,4.6-6.3,9.2-9.7,13.7c-3.3,4.5-6.5,9.1-9.6,13.8l0.2,0.2c0.9-1.1,1.9-2.4,3.1-3.7
			c1.2-1.3,2.4-2.6,3.8-3.8c1.3-1.2,2.8-2.1,4.4-2.9s3.2-1.2,4.8-1.2c1.9,0,3.5,0.5,4.7,1.5c1.3,1,1.9,2.7,1.9,5.1
			c0,1.5-0.2,2.9-0.6,4.3c-0.4,1.3-1,2.6-1.6,3.8c-0.7,1.2-1.4,2.3-2.3,3.3c-0.9,1-1.7,1.9-2.6,2.8l0.2,0.2c4.2-0.7,8-2.1,11.5-4.2
			s6.8-5.2,10.2-9.3l0.7,0.3c-2.6,3.2-5.1,5.6-7.4,7.4c-2.3,1.8-4.4,3.1-6.3,4c-1.9,0.9-3.7,1.5-5.4,1.8c-1.6,0.3-3.2,0.7-4.7,1
			c-1,0.7-2.1,1.6-3.4,2.7c-1.3,1-2.6,2-4,3c-1.4,0.9-2.9,1.7-4.4,2.4c-1.5,0.7-3.1,1-4.7,1c-0.8,0-1.6-0.2-2.4-0.6
			c-0.8-0.4-1.2-1.1-1.2-2.1c0-1.2,0.6-2.2,1.8-3c1.2-0.8,2.7-1.4,4.4-1.9c1.7-0.5,3.5-0.9,5.4-1.1c1.9-0.3,3.5-0.4,4.7-0.6
			c0.8-0.9,1.5-1.9,2.3-3.1c0.8-1.2,1.5-2.5,2.2-3.9c0.6-1.4,1.2-2.8,1.6-4.3c0.4-1.5,0.6-2.8,0.6-4.1c0-2-0.3-3.3-0.9-3.9
			c-0.6-0.6-1.3-0.9-2.1-0.9c-1.3,0-2.8,0.5-4.3,1.4c-1.5,0.9-3,2.2-4.5,3.7c-1.5,1.5-3,3.2-4.5,5.1c-1.5,1.9-2.9,3.7-4.2,5.5
			c-1.3,1.8-2.5,3.5-3.5,5.1c-1.1,1.6-1.9,2.8-2.6,3.7c-0.5,0.7-1.3,1.8-2.3,3.3c-1,1.4-2.1,3.1-3.3,4.9c-1.2,1.8-2.5,3.8-3.9,5.9
			c-1.4,2.1-2.7,4.3-4.1,6.4c-1.3,2.2-2.6,4.2-3.9,6.2c-1.2,2-2.3,3.8-3.3,5.4h-5.4c7.9-12.4,16-24.8,24.2-37s16.4-24.6,24.4-37.1
			H190.9z M171.1,120.6c0.9,0,1.9-0.3,2.9-0.9c1.1-0.6,2.1-1.3,3.2-2.1c1-0.8,1.9-1.6,2.8-2.4c0.8-0.8,1.4-1.4,1.8-1.8l-0.2-0.2
			c-1,0.2-2.2,0.4-3.7,0.6c-1.5,0.2-2.9,0.5-4.3,0.8c-1.4,0.3-2.5,0.8-3.5,1.4c-1,0.6-1.4,1.4-1.4,2.5c0,0.7,0.3,1.2,0.8,1.5
			C169.9,120.4,170.5,120.6,171.1,120.6z"/>
		<path class="st1" d="M239.1,98.6c-0.9,1.4-2,3-3.3,4.7c-1.3,1.7-2.8,3.4-4.5,5.1c-1.7,1.7-3.5,3.3-5.4,4.9c-1.9,1.6-3.9,3-5.9,4.2
			c-2.1,1.2-4.1,2.2-6.2,2.9c-2.1,0.7-4.1,1.1-6.1,1.1c-2.5,0-4.4-0.6-5.7-1.8c-1.3-1.2-2-3-2-5.3c0-2.5,0.8-5.2,2.3-8
			c1.6-2.8,3.5-5.3,5.9-7.7c2.4-2.4,5-4.3,7.9-5.8c2.9-1.5,5.6-2.3,8.3-2.3c1.5,0,2.6,0.3,3.4,0.9s1.2,1.5,1.2,2.6
			c0,1.4-0.8,2.7-2.3,4s-3.4,2.5-5.6,3.5c-2.2,1.1-4.6,2-7.1,2.8c-2.5,0.8-4.7,1.4-6.7,1.8c-0.6,1.1-1.2,2.4-1.6,3.9
			c-0.4,1.4-0.6,2.9-0.6,4.3c0,0.7,0.1,1.4,0.2,2c0.1,0.7,0.4,1.3,0.7,1.8c0.3,0.5,0.8,1,1.3,1.3c0.6,0.3,1.2,0.5,2.1,0.5
			c1.9,0,4.2-0.6,6.8-1.8c2.6-1.2,5.3-2.9,8-4.9c2.7-2.1,5.3-4.4,7.7-7.1c2.5-2.6,4.6-5.4,6.3-8.2L239.1,98.6z M224.8,94.1
			c0-0.8-0.2-1.4-0.7-1.8c-0.4-0.4-1-0.6-1.6-0.6c-1.2,0-2.6,0.5-4,1.4c-1.4,0.9-2.9,2.1-4.3,3.5c-1.4,1.4-2.7,2.9-3.8,4.5
			c-1.1,1.6-2,3-2.6,4.3c1.3-0.2,2.9-0.7,4.8-1.3c1.9-0.7,3.8-1.5,5.6-2.5c1.8-1,3.3-2.1,4.6-3.4C224.2,97,224.8,95.6,224.8,94.1z"
			/>
		<path class="st1" d="M253.7,81.4l-6.9,10h11.6l-0.5,1h-11.8c-2.3,3.7-4.4,7-6.3,9.7c-1.8,2.7-3.4,5.1-4.7,7.1
			c-1.3,2-2.2,3.6-2.9,5c-0.6,1.3-1,2.5-1,3.6c0,1.1,0.4,1.8,1.1,2.3c0.8,0.4,1.6,0.6,2.6,0.6c2.1,0,4.4-0.8,7-2.4
			c2.5-1.6,5.1-3.5,7.6-5.8c2.5-2.3,4.9-4.7,7.2-7.3c2.3-2.6,4.2-4.9,5.8-7l0.5,0.3c-2,2.5-4.2,5.1-6.5,7.8
			c-2.4,2.7-4.8,5.2-7.3,7.5c-2.5,2.3-5.1,4.1-7.6,5.6c-2.5,1.5-5,2.2-7.2,2.2c-1.8,0-3.4-0.5-4.7-1.6c-1.3-1.1-2-2.6-2-4.6
			c0-1.3,0.4-2.8,1.1-4.4c0.8-1.6,1.8-3.4,3-5.3c1.2-1.9,2.6-4,4.2-6.2c1.6-2.2,3.1-4.6,4.8-7.1h-4.7l0.5-1h4.9l6.9-10H253.7z"/>
		<path class="st1" d="M272.5,91.3c-2.3,3-4.5,5.9-6.6,8.7c-2.1,2.8-4,5.3-5.6,7.6c-1.6,2.3-2.9,4.3-3.9,6c-1,1.7-1.4,3-1.4,4
			c0,0.9,0.2,1.6,0.7,2c0.5,0.4,1.1,0.6,1.8,0.6c1.1,0,2.3-0.3,3.6-1c1.3-0.7,2.7-1.6,4-2.7c1.4-1.1,2.7-2.3,4-3.6
			c1.3-1.3,2.5-2.6,3.7-3.9c1.1-1.3,2.1-2.5,3-3.6c0.8-1.1,1.5-1.9,1.9-2.6l7.7-11.5h6.1c-3.2,4.2-5.8,7.8-8,10.8
			c-2.2,3-4,5.5-5.4,7.5c-1.4,2.1-2.4,3.7-2.9,5c-0.6,1.3-0.9,2.4-0.9,3.4c0,0.7,0.2,1.3,0.6,1.8c0.4,0.5,1,0.7,1.8,0.7
			c1.2,0,2.5-0.4,4-1.2c1.5-0.8,3.1-1.9,4.7-3.3c1.6-1.3,3.3-2.9,4.9-4.6c1.6-1.7,3.1-3.4,4.6-5c1.4-1.7,2.7-3.2,3.9-4.7
			c1.2-1.5,2.1-2.7,2.7-3.6l0.9,0.3c-0.7,1-1.6,2.2-2.8,3.7c-1.2,1.5-2.5,3.1-4,4.8c-1.5,1.7-3,3.4-4.7,5.2
			c-1.6,1.7-3.3,3.3-5.1,4.7s-3.4,2.5-5.1,3.4c-1.7,0.9-3.2,1.3-4.7,1.3c-1.6,0-2.9-0.4-3.9-1.3s-1.4-2.1-1.4-3.6
			c0-1.1,0.2-2.2,0.6-3.3c0.4-1.1,0.7-1.7,0.8-2l-0.2-0.2c-1.2,1.4-2.5,2.7-3.9,4c-1.3,1.3-2.7,2.4-4,3.3c-1.3,0.9-2.7,1.7-4.1,2.3
			c-1.4,0.6-2.7,0.9-4.1,0.9c-1.9,0-3.2-0.4-4-1.2s-1.2-1.8-1.2-3c0-1.4,0.4-3,1.2-4.6c0.8-1.7,1.9-3.5,3.3-5.6
			c1.4-2.1,3.1-4.4,5.1-7c2-2.6,4.1-5.5,6.5-8.9H272.5z"/>
		<path class="st1" d="M310.5,91.3l-11.6,15.7l0.2,0.2c1.2-1.4,2.7-3.1,4.3-5c1.6-1.9,3.4-3.7,5.3-5.5c1.9-1.7,3.8-3.2,5.8-4.3
			c2-1.2,4-1.8,6-1.8c1.8,0,3.1,0.5,4.1,1.4c1,0.9,1.4,2.2,1.4,3.7c0,0.9-0.3,2-1,3.3c-0.7,1.3-1.5,2.6-2.5,4
			c-1,1.4-2.1,2.9-3.2,4.4c-1.2,1.5-2.3,2.9-3.3,4.3c-1,1.3-1.8,2.6-2.5,3.7c-0.7,1.1-1,2.1-1,2.8c0,1.6,0.8,2.4,2.5,2.4
			c1.9,0,3.9-0.6,6-1.8c2.1-1.2,4.6-3.3,7.6-6.2c1.2-1.1,2.4-2.4,3.6-3.8c1.2-1.4,2.4-2.7,3.5-4.1c1.1-1.3,2.1-2.6,3-3.8
			c0.9-1.2,1.6-2.2,2.2-3l0.6,0.3c-1.2,1.7-2.7,3.8-4.5,6.1c-1.8,2.4-3.9,4.7-6,7c-1.3,1.4-2.6,2.7-4,4c-1.3,1.3-2.7,2.4-4,3.3
			c-1.3,0.9-2.7,1.7-4,2.2c-1.3,0.5-2.6,0.8-3.9,0.8c-1.7,0-3.1-0.5-4.2-1.4c-1.1-0.9-1.7-2.2-1.7-3.8c0-1.7,0.7-3.6,2.1-5.6
			c1.4-2,3-4.1,4.7-6.1c1.7-2.1,3.3-4,4.7-5.9c1.4-1.9,2.1-3.6,2.1-5c0-0.7-0.2-1.2-0.7-1.5c-0.5-0.3-1.1-0.5-1.8-0.5
			c-1.5,0-3.1,0.5-4.9,1.6c-1.8,1.1-3.7,2.5-5.6,4.2c-1.9,1.7-3.8,3.7-5.7,5.8c-1.9,2.1-3.7,4.3-5.3,6.4c-1.6,2.2-3.1,4.2-4.4,6.2
			c-1.3,2-2.3,3.6-2.9,4.9h-5.4c1.5-2.5,3.1-5.1,4.9-7.7c1.7-2.6,3.4-5.2,5.1-7.7c1.7-2.6,3.3-5,4.9-7.4c1.6-2.4,2.9-4.5,4.2-6.5
			L310.5,91.3z"/>
		<path class="st1" d="M350.5,91.3c-3.2,4.5-5.9,8.3-8.2,11.4c-2.2,3.1-4,5.7-5.4,7.7c-1.4,2.1-2.4,3.7-3,4.9
			c-0.6,1.2-0.9,2.2-0.9,2.9c0,1.5,0.6,2.2,1.8,2.2c1.2,0,2.5-0.4,4.1-1.2c1.6-0.8,3.2-1.9,4.9-3.2c1.7-1.3,3.4-2.8,5.1-4.5
			c1.7-1.7,3.3-3.3,4.8-4.9c1.5-1.6,2.8-3.2,4-4.7c1.1-1.5,2-2.8,2.5-3.7l0.7,0.4c-0.7,1.1-1.7,2.5-2.9,4.1
			c-1.2,1.6-2.6,3.3-4.1,4.9c-1.5,1.7-3.1,3.4-4.8,5c-1.7,1.7-3.4,3.2-5.2,4.5c-1.8,1.3-3.5,2.4-5.1,3.2c-1.7,0.8-3.2,1.2-4.6,1.2
			c-1.6,0-2.8-0.4-3.5-1.3s-1.1-1.8-1.1-2.8c0-1.2,0.3-2.5,0.8-3.8c0.6-1.3,1.4-3,2.7-4.9c1.2-1.9,2.8-4.3,4.8-7.1
			c2-2.8,4.3-6.2,7.1-10.3H350.5z M355.6,75.3c0.8,0,1.5,0.3,2,0.8c0.5,0.5,0.8,1.2,0.8,2c0,0.8-0.3,1.5-0.8,2
			c-0.5,0.5-1.2,0.8-2,0.8c-0.8,0-1.5-0.3-2-0.8c-0.5-0.5-0.8-1.2-0.8-2c0-0.8,0.3-1.5,0.8-2C354.1,75.6,354.8,75.3,355.6,75.3z"/>
		<path class="st1" d="M383.7,91.3h5.7c-2.2,3-4.2,5.9-6.2,8.7c-2,2.8-3.8,5.4-5.3,7.8c-1.6,2.4-2.8,4.5-3.7,6.3
			c-0.9,1.8-1.4,3.2-1.4,4.3c0,1.5,0.8,2.2,2.4,2.2c1.2,0,2.8-0.6,4.7-1.8c1.9-1.2,4-2.8,6.2-4.9c2.2-2.1,4.5-4.5,6.9-7.2
			c2.3-2.8,4.6-5.7,6.7-8.8l0.5,0.2c-1.6,2.4-3.4,4.9-5.6,7.6c-2.1,2.7-4.4,5.3-6.7,7.6c-2.3,2.4-4.7,4.3-7,5.9
			c-2.3,1.6-4.5,2.4-6.6,2.4c-1.7,0-2.9-0.4-3.7-1.2c-0.8-0.8-1.2-1.8-1.2-3c0-0.8,0.1-1.6,0.4-2.4s0.5-1.6,0.8-2.4l-0.2-0.1
			c-0.8,0.8-1.7,1.7-2.9,2.8c-1.1,1.1-2.4,2.1-3.7,3c-1.3,0.9-2.7,1.7-4.1,2.3c-1.4,0.6-2.8,0.9-4,0.9c-2.2,0-3.7-0.7-4.6-2
			c-0.9-1.3-1.3-2.8-1.3-4.5c0-2.4,0.8-4.9,2.3-7.8c1.5-2.8,3.5-5.5,5.8-8c2.3-2.5,4.9-4.6,7.6-6.2c2.8-1.7,5.4-2.5,7.8-2.5
			c1.2,0,2.2,0.2,3.1,0.5c0.9,0.3,1.6,0.7,2.2,1.3c0.6,0.5,1,1.2,1.4,1.8c0.3,0.7,0.6,1.4,0.7,2.2h0.2L383.7,91.3z M354.9,115.4
			c0,1.3,0.3,2.3,0.8,3.1c0.6,0.7,1.3,1.1,2.3,1.1c1,0,2.2-0.4,3.5-1.1c1.3-0.7,2.8-1.7,4.2-2.9c1.5-1.2,2.9-2.6,4.3-4.2
			c1.4-1.6,2.7-3.3,3.8-5c1.1-1.8,2-3.6,2.7-5.4c0.7-1.8,1.1-3.6,1.1-5.2c0-1.3-0.4-2.3-1.1-3c-0.8-0.7-1.7-1-2.8-1
			c-1.8,0-3.7,0.7-5.9,2.2c-2.2,1.5-4.2,3.4-6.2,5.7c-1.9,2.3-3.6,4.9-4.9,7.7C355.6,110.1,354.9,112.8,354.9,115.4z"/>
	</g>
</g>
</svg>
